<svg preserveAspectRatio="none" overflow="visible" style="display: block;" width="18" height="18" viewBox="0 0 18 18" fill="none" xmlns="http://www.w3.org/2000/svg">
<g id="cog">
<g clip-path="url(#clip0_0_9)">
<path id="Vector" d="M8.24994 7.70228L5.2497 2.50436M8.24994 10.298L5.2497 15.4959M9 16.5006V15.0005M9 15.0005C12.314 15.0005 15.0005 12.314 15.0005 9C15.0005 5.68603 12.314 2.99952 9 2.99952M9 15.0005C5.68603 15.0005 2.99952 12.314 2.99952 9M9 2.99952V1.4994M9 2.99952C5.68603 2.99952 2.99952 5.68603 2.99952 9M2.99952 9H1.4994M10.5001 9H16.5006M10.5001 9C10.5001 9.82849 9.82849 10.5001 9 10.5001C8.17151 10.5001 7.49988 9.82849 7.49988 9C7.49988 8.17151 8.17151 7.49988 9 7.49988C9.82849 7.49988 10.5001 8.17151 10.5001 9ZM12.7503 15.4953L12.0002 14.1977M12.7503 2.50436L12.0002 3.80197M15.4953 12.7503L14.1977 12.0002M15.4953 5.2497L14.1977 5.99976M2.50436 12.7503L3.80197 12.0002M2.50436 5.2497L3.80197 5.99976" stroke="#94A3B8" stroke-width="2" stroke-linecap="round"/>
</g>
</g>
<defs>
<clipPath id="clip0_0_9">
<path d="M0 6C0 2.68629 2.68629 0 6 0H12C15.3137 0 18 2.68629 18 6V12C18 15.3137 15.3137 18 12 18H6C2.68629 18 0 15.3137 0 12V6Z" fill="white"/>
</clipPath>
</defs>
</svg>
