<svg preserveAspectRatio="none" overflow="visible" style="display: block;" width="18" height="18" viewBox="0 0 18 18" fill="none" xmlns="http://www.w3.org/2000/svg">
<g id="file-pen">
<path id="Vector" d="M9.49371 16.5006H13.4994C13.8972 16.5006 14.2788 16.3426 14.5601 16.0612C14.8414 15.7799 14.9994 15.3983 14.9994 15.0005V5.99976M14.9994 5.99976C15 5.76208 14.9535 5.52663 14.8626 5.307C14.7717 5.08738 14.6383 4.88793 14.4699 4.72016L11.7789 2.02895C11.6112 1.86057 11.4117 1.72709 11.1921 1.6362C10.9725 1.54532 10.7371 1.49882 10.4994 1.49941M14.9994 5.99976L11.2494 5.99976C11.0505 5.99976 10.8598 5.92073 10.7191 5.78007C10.5785 5.63941 10.4994 5.44863 10.4994 5.2497V1.49941M10.4994 1.49941H4.49952C4.10169 1.49941 3.72017 1.65745 3.43887 1.93878C3.15757 2.22011 2.99953 2.60167 2.99953 2.99952V10.0051M7.78299 9.46643C8.08166 9.16804 8.48661 9.00052 8.90878 9.00073C9.33094 9.00094 9.73573 9.16886 10.0341 9.46755C10.3325 9.76624 10.5 10.1712 10.4997 10.5934C10.4995 11.0156 10.3316 11.4205 10.033 11.7189L6.26951 15.4782C6.0913 15.6565 5.87102 15.787 5.62902 15.8577L3.47879 16.4855C3.41426 16.5043 3.34585 16.5054 3.28073 16.4888C3.21561 16.4721 3.15617 16.4382 3.10863 16.3906C3.0611 16.3431 3.02722 16.2837 3.01053 16.2185C2.99385 16.1534 2.99498 16.085 3.0138 16.0204L3.64079 13.8685C3.71157 13.6268 3.84208 13.4067 4.02029 13.2287L7.78299 9.46643Z" stroke="#475569" stroke-width="2" stroke-linecap="round"/>
</g>
</svg>
